<svg width="28" height="28" viewBox="0 0 28 28" fill="none" xmlns="http://www.w3.org/2000/svg">
<path d="M25.8327 13.9805C26.0014 13.5974 26.1715 13.2161 26.3264 12.869C27.2128 10.8825 27.2087 10.8655 27.1579 10.657C26.4744 7.85203 23.5859 6.53574 22.8572 6.24468C22.4734 5.33997 21.7557 4.31704 20.4162 3.5446C18.2047 2.26931 17.3502 0.362234 17.3422 0.344092C17.2812 0.203004 17.1528 0.102374 17.0012 0.0768538C16.9523 0.0686293 15.7855 -0.122471 14.4155 0.131281C13.221 0.352619 12.2423 0.844581 11.5164 1.5779C10.737 0.949202 9.67798 0.71837 8.92489 0.635822C8.17742 0.553879 7.44296 0.588954 7.26577 0.649066C7.11784 0.699321 7.00095 0.825169 6.96502 0.977263C6.85629 1.43729 6.51763 1.95508 6.1901 2.45587C5.67226 3.24743 5.13814 4.06444 5.2545 4.93927C3.41558 5.90977 1.46648 7.74215 1.17475 8.02088C1.12225 8.07101 1.08258 8.133 1.05906 8.20164C1.04376 8.24609 0.683389 9.30676 0.499123 10.7193C0.247366 12.6502 0.442276 14.2403 1.07847 15.4455C1.0974 15.4815 1.11784 15.5159 1.13755 15.5511C0.555848 16.6156 0.780633 17.5862 0.979353 18.443C1.13417 19.1104 1.26782 19.6867 1.04975 20.2651C1.00004 20.3973 1.01552 20.5474 1.0902 20.6672C1.25276 20.9277 3.36907 22.4396 5.59678 22.671C5.6341 22.8218 5.68199 22.9742 5.74476 23.1272C6.25172 24.3626 7.48069 25.3476 9.39762 26.0549C10.3785 26.4169 11.0716 26.7604 11.6831 27.0634C12.4402 27.4385 13.094 27.7625 13.9513 27.9301C14.1904 27.9769 14.4341 28.0001 14.6809 28.0001C15.8439 28.0001 17.0755 27.4863 18.2188 26.511C18.4478 26.3156 18.7755 26.1243 19.1224 25.9218C20.314 25.2263 21.9385 24.2764 21.8459 21.8494C22.0544 21.7344 22.259 21.611 22.4584 21.4748C22.4876 21.5049 22.5211 21.5315 22.5593 21.5534C22.7404 21.6567 22.9206 21.7029 23.0999 21.7029C23.9007 21.7029 24.6836 20.7791 25.4453 19.8803C26.0163 19.2065 26.6635 18.4429 27.1899 18.2325C27.3248 18.1785 27.5578 18.0262 27.6006 17.6126C27.6886 16.7666 26.9242 14.8461 25.8327 13.9805ZM26.2492 10.766C26.1525 11.0327 25.8068 11.8075 25.498 12.4993C25.038 13.5303 24.6367 14.4374 24.3527 15.1368C24.303 14.9818 24.2517 14.8259 24.2 14.6689C23.9474 13.9017 23.6862 13.1084 23.585 12.322C23.4896 11.5806 23.2869 10.9421 22.9806 10.4095C23.3186 9.5244 23.3993 8.43501 23.2073 7.40966C24.189 7.92745 25.7695 9.0071 26.2492 10.766ZM20.3593 21.5752C19.4398 22.0075 18.3977 22.4975 17.339 23.4269C15.9735 24.6257 14.2447 24.2143 13.1184 23.292C13.4225 23.0712 13.7086 22.8041 13.9725 22.4923C15.036 22.3586 16.1262 21.9772 17.1536 21.361C19.022 20.2407 20.4468 18.476 21.0628 16.5196C21.8574 13.9958 21.0111 11.2306 19.6736 9.46822C20.1493 9.47971 20.8552 9.5856 21.4648 10.0345C22.1329 10.5266 22.5436 11.3351 22.6854 12.4378C22.7975 13.3101 23.0725 14.1451 23.3384 14.9527C23.7506 16.2044 24.14 17.3868 23.7579 18.3515C22.9666 20.3494 21.816 20.8903 20.3593 21.5752ZM5.92268 18.9895C5.53613 18.1502 5.05541 17.5973 4.6313 17.1095C4.04742 16.4379 3.58618 15.9075 3.4362 14.7967C3.08889 12.2241 4.70708 9.74078 6.40581 8.71041C6.87347 8.42679 7.31415 8.2756 7.67796 8.26296C6.69005 9.36535 5.59074 11.1866 5.6269 12.9745C5.64867 14.0514 6.07877 14.9386 6.90515 15.6116C7.12317 15.7892 7.3485 15.9454 7.57969 16.0806C7.3211 16.8813 7.44024 18.0628 7.90849 19.1457C8.30297 20.0581 9.29294 21.6839 11.4904 22.321C11.8579 22.4276 12.2399 22.4952 12.6313 22.5264C11.9825 23.0153 11.2428 23.2208 10.452 23.1245C8.73657 22.9158 7.00107 21.3313 5.92268 18.9895ZM8.31271 4.45462C9.04294 3.90176 10.5526 3.14178 12.4584 4.26304C13.838 5.07479 15.1755 5.38291 16.2501 5.63043C17.7297 5.97121 18.5158 6.19103 18.8187 7.09271C19.0205 7.69395 18.6241 8.0894 18.439 8.23484C17.5031 7.55867 16.5006 7.35735 15.6127 7.68004C15.1555 7.25884 14.6113 6.92205 13.9922 6.68584C12.1402 5.97907 10.0137 6.30207 8.48246 7.49959C7.91847 7.26065 7.20946 7.31756 6.44887 7.66257C6.48534 6.55273 7.36676 5.1707 8.31271 4.45462ZM11.743 21.4499C9.90265 20.9163 9.07227 19.5517 8.74105 18.7858C8.34651 17.8732 8.28144 16.9961 8.41207 16.4656C8.61236 16.5355 8.81579 16.5908 9.02177 16.631C9.49868 17.8159 10.7225 18.769 12.1393 19.0359C12.4155 19.088 12.6914 19.1136 12.9653 19.1136C14.4066 19.1136 15.7926 18.4036 16.8613 17.0914C18.0981 15.5727 19.2434 13.4862 17.1769 10.7713C17.0541 9.89251 16.7478 9.10568 16.2838 8.44608C17.1158 8.34502 17.8815 8.90599 18.2971 9.2891C19.8556 10.7261 20.9926 13.7216 20.1975 16.2471C19.6472 17.9948 18.3677 19.5752 16.6871 20.583C15.0437 21.5686 13.2416 21.8844 11.743 21.4499ZM8.83557 8.38415C10.1095 7.25811 12.0519 6.91631 13.6688 7.53333C14.3157 7.78019 15.3121 8.33994 15.8857 9.54599C15.1639 9.06189 14.3297 8.75976 13.4609 8.68308C12.316 8.58227 11.2386 8.90006 10.5042 9.55555C9.17096 10.7455 8.68239 12.208 9.16371 13.568C9.5046 14.5314 10.3105 15.3013 11.195 15.5652C10.2805 15.8964 8.88746 16.0562 7.47797 14.9084C6.8676 14.4114 6.54993 13.7546 6.53384 12.9563C6.50941 11.7477 7.3078 9.73461 8.83557 8.38415ZM12.0527 14.8566C11.7826 14.6368 11.6144 14.3248 11.579 13.9784C11.5436 13.632 11.6452 13.2925 11.8651 13.0224C12.0849 12.7524 12.3969 12.5842 12.7433 12.5487C12.7884 12.5441 12.8335 12.5419 12.8784 12.5419C13.1771 12.5419 13.4644 12.6436 13.6992 12.8349C14.2566 13.2888 14.3408 14.1117 13.8868 14.6691C13.6669 14.9391 13.355 15.1074 13.0086 15.1428C12.6624 15.1783 12.3227 15.0765 12.0527 14.8566ZM12.8719 16.0569C12.9479 16.0569 13.0244 16.053 13.101 16.0452C13.6885 15.985 14.2174 15.6998 14.5903 15.2419C15.3601 14.2966 15.2174 12.9013 14.2721 12.1314C13.8142 11.7585 13.2384 11.5861 12.651 11.6463C12.0635 11.7065 11.5346 11.9917 11.1617 12.4496C10.7887 12.9075 10.6164 13.4833 10.6765 14.0708C10.6835 14.1389 10.6938 14.2061 10.7068 14.2725C10.4062 14.0092 10.1577 13.6576 10.0189 13.2654C9.66147 12.2554 10.0483 11.1783 11.1083 10.2322C11.6565 9.74284 12.4847 9.50759 13.3811 9.58663C14.5507 9.68992 15.6464 10.2897 16.3869 11.2322C18.0483 13.3462 17.4969 14.8744 16.158 16.5186C14.7134 18.2923 13.1256 18.2987 12.3074 18.1445C11.3631 17.9666 10.5328 17.4176 10.0779 16.7078C10.2194 16.7011 10.3614 16.6883 10.5039 16.6681C10.9565 16.6041 11.6491 16.4363 12.3885 16.003C12.546 16.0385 12.7079 16.0569 12.8719 16.0569ZM14.5559 1.02794C15.4423 0.860063 16.2503 0.905963 16.627 0.94382C16.9463 1.54966 17.9397 3.16367 19.963 4.33041C21.4593 5.19326 22.035 6.41703 22.2545 7.29174C22.4631 8.12351 22.4274 8.92165 22.2917 9.54285C22.1998 9.45849 22.1038 9.37854 22.0027 9.30409C21.0537 8.60507 19.9563 8.54012 19.376 8.56527C19.6952 8.14975 19.9262 7.54138 19.6785 6.80395C19.2 5.3791 17.9273 5.08598 16.4538 4.74653C15.3869 4.50076 14.1776 4.22222 12.9184 3.48128C12.4648 3.21441 12.0292 3.03455 11.6146 2.92189C12.2105 1.92176 13.1971 1.28526 14.5559 1.02794ZM6.9493 2.95249C7.25621 2.48327 7.57177 2.00086 7.75355 1.49958C8.38721 1.47062 10.0036 1.52389 10.9456 2.28273C10.843 2.43851 10.7486 2.60149 10.6632 2.77197C9.37343 2.71755 8.36163 3.28008 7.76529 3.73141C7.52417 3.91392 7.29733 4.11893 7.08755 4.34014C6.79999 4.35091 6.48673 4.4216 6.15932 4.53645C6.22753 4.0573 6.57974 3.51745 6.9493 2.95249ZM1.88399 8.59926C2.13841 8.36256 2.95101 7.62144 3.91558 6.89526C4.95146 6.11538 5.70346 5.69454 6.24011 5.47344C5.71441 6.37712 5.45279 7.36418 5.5755 8.17207C3.73065 9.48298 2.15837 12.1122 2.53718 14.9181C2.60618 15.4294 2.73512 15.8492 2.90058 16.2106C2.47725 15.9046 2.13938 15.5113 1.88182 15.0241C0.682361 12.7548 1.6834 9.24416 1.88399 8.59926ZM1.86319 18.2382C1.71231 17.5875 1.57829 17.0087 1.75766 16.4054C2.31651 17.004 3.0407 17.4298 3.92212 17.6763C3.93034 17.6858 3.93856 17.6953 3.94673 17.7047C4.34973 18.1682 4.76652 18.6475 5.09871 19.369C5.30148 19.8093 5.52802 20.228 5.77385 20.6215C5.76775 20.6322 5.76176 20.643 5.75644 20.6543C5.62363 20.9374 5.52185 21.3167 5.50323 21.746C3.95985 21.5294 2.52847 20.6458 1.99726 20.2644C2.16774 19.5515 2.01323 18.8852 1.86319 18.2382ZM18.6654 25.1385C18.2825 25.362 17.9208 25.5731 17.6303 25.821C16.4591 26.82 15.2146 27.2531 14.1256 27.04C13.3879 26.8958 12.8134 26.6111 12.086 26.2507C11.4542 25.9376 10.7381 25.5828 9.71185 25.2041C8.06645 24.5969 6.98492 23.7597 6.58415 22.783C6.38598 22.3001 6.38211 21.8687 6.43013 21.553C6.73722 21.9383 7.06523 22.2872 7.40964 22.593C8.32752 23.4081 9.34156 23.9032 10.3423 24.0251C10.5042 24.0448 10.6649 24.0546 10.824 24.0546C11.3298 24.0546 11.8199 23.9556 12.2826 23.7634C12.2883 23.7692 12.2936 23.7753 12.2996 23.7809C13.0104 24.4452 13.9433 24.9022 14.8588 25.0348C15.053 25.0629 15.2448 25.0769 15.4342 25.0769C16.3533 25.0769 17.2098 24.7475 17.9375 24.1086C18.8997 23.2638 19.8379 22.8227 20.7452 22.3962C20.8086 22.3663 20.8718 22.3366 20.9349 22.3068C20.8254 23.8775 19.729 24.5177 18.6654 25.1385ZM24.7534 19.2939C24.346 19.7748 23.7875 20.434 23.3835 20.6857C23.8444 20.1906 24.2575 19.5533 24.6011 18.6855C24.86 18.032 24.8691 17.3616 24.7539 16.6723C24.7858 16.6259 24.8103 16.5734 24.8234 16.515C24.8892 16.2205 25.1433 15.5819 25.4541 14.8528C26.2168 15.5967 26.7072 17.0088 26.7043 17.4571C26.0236 17.7952 25.3786 18.5563 24.7534 19.2939Z" fill="black"/>
</svg>
