<svg width="17" height="17" viewBox="0 0 17 17" fill="none" xmlns="http://www.w3.org/2000/svg">
<path d="M8.99881 2.43959C11.1353 2.43959 11.3881 2.44785 12.2319 2.48628C13.0119 2.52185 13.4356 2.65206 13.7176 2.76163C14.0911 2.90677 14.3575 3.08018 14.6377 3.35997C14.9178 3.64009 15.0912 3.90655 15.236 4.28004C15.3456 4.56206 15.4758 4.98572 15.5113 5.76573C15.5498 6.60925 15.558 6.86237 15.558 8.99881C15.558 11.1352 15.5498 11.388 15.5113 12.2319C15.4758 13.0119 15.3456 13.4356 15.236 13.7176C15.0909 14.0911 14.9174 14.3575 14.6377 14.6376C14.3575 14.9178 14.0911 15.0912 13.7176 15.236C13.4356 15.3456 13.0119 15.4758 12.2319 15.5113C11.3884 15.5498 11.1353 15.558 8.99881 15.558C6.86237 15.558 6.60925 15.5498 5.76573 15.5113C4.98573 15.4758 4.56206 15.3456 4.28004 15.236C3.90655 15.0908 3.64009 14.9174 3.35998 14.6376C3.07986 14.3575 2.90645 14.0911 2.76163 13.7176C2.65206 13.4356 2.52185 13.0119 2.48628 12.2319C2.44785 11.3884 2.43959 11.1352 2.43959 8.99881C2.43959 6.86237 2.44785 6.60957 2.48628 5.76573C2.52185 4.98572 2.65206 4.56206 2.76163 4.28004C2.90677 3.90655 3.08018 3.64009 3.35998 3.35997C3.64009 3.07986 3.90655 2.90645 4.28004 2.76163C4.56206 2.65206 4.98573 2.52185 5.76573 2.48628C6.60957 2.44785 6.86237 2.43959 8.99881 2.43959ZM8.99881 0.998047C6.82585 0.998047 6.55336 1.00726 5.69999 1.04632C4.84853 1.08507 4.26702 1.22036 3.75792 1.41822C3.23167 1.62275 2.78545 1.8962 2.34082 2.34114C1.8962 2.78577 1.62243 3.23198 1.41822 3.75792C1.22036 4.26701 1.08507 4.84852 1.04632 5.69999C1.00726 6.55335 0.998047 6.82585 0.998047 8.99881C0.998047 11.1718 1.00726 11.4443 1.04632 12.2976C1.08507 13.1491 1.22036 13.7306 1.41822 14.2397C1.62275 14.766 1.8962 15.2122 2.34114 15.6568C2.78609 16.1017 3.23199 16.3752 3.75823 16.5797C4.26702 16.7776 4.84884 16.9129 5.70031 16.9516C6.55368 16.9907 6.82617 16.9999 8.99913 16.9999C11.1721 16.9999 11.4446 16.9907 12.298 16.9516C13.1494 16.9129 13.7312 16.7776 14.24 16.5797C14.7663 16.3752 15.2125 16.1017 15.6571 15.6568C16.1021 15.2118 16.3755 14.766 16.58 14.2397C16.7779 13.7309 16.9132 13.1491 16.9519 12.2976C16.991 11.4443 17.0002 11.1718 17.0002 8.99881C17.0002 6.82585 16.991 6.55335 16.9519 5.69999C16.9132 4.84852 16.7779 4.2667 16.58 3.75792C16.3755 3.23167 16.1021 2.78545 15.6571 2.34082C15.2122 1.89588 14.7663 1.62243 14.24 1.4179C13.7306 1.22036 13.1491 1.08507 12.2976 1.04632C11.4443 1.00726 11.1718 0.998047 8.99881 0.998047Z" fill="white"/>
<path d="M8.99899 4.89062C6.7298 4.89062 4.89062 6.73012 4.89062 8.99899C4.89062 11.2679 6.73012 13.1074 8.99899 13.1074C11.2679 13.1074 13.1074 11.2679 13.1074 8.99899C13.1074 6.73012 11.2682 4.89062 8.99899 4.89062ZM8.99899 11.6658C7.526 11.6658 6.33217 10.4717 6.33217 8.99899C6.33217 7.526 7.52632 6.33217 8.99899 6.33217C10.4717 6.33217 11.6658 7.52632 11.6658 8.99899C11.6658 10.472 10.472 11.6658 8.99899 11.6658Z" fill="white"/>
<path d="M13.2706 5.68822C13.8009 5.68822 14.2307 5.25838 14.2307 4.72814C14.2307 4.19791 13.8009 3.76807 13.2706 3.76807C12.7404 3.76807 12.3105 4.19791 12.3105 4.72814C12.3105 5.25838 12.7404 5.68822 13.2706 5.68822Z" fill="white"/>
</svg>
