<svg width="20" height="20" viewBox="0 0 20 20" fill="none" xmlns="http://www.w3.org/2000/svg">
<path d="M11.4074 10.047C11.7516 10.1969 12.1319 10.2802 12.5315 10.2799C13.4515 10.279 14.2683 9.83663 14.781 9.15319L18.1535 5.77594C18.5064 5.30541 18.7154 4.72097 18.7148 4.08788C18.714 2.53481 17.4537 1.27622 15.9004 1.27734C15.2673 1.27791 14.6834 1.48744 14.2131 1.84097L10.5594 5.49975C10.0622 6.00741 9.71652 6.70266 9.7168 7.46934C9.71708 7.86984 9.80117 8.25066 9.9522 8.59519" stroke="white" stroke-width="1.5" stroke-miterlimit="10"/>
<path d="M9.95215 8.59521C9.96705 8.62925 9.98224 8.66271 9.99884 8.6959" stroke="white" stroke-width="1.5" stroke-miterlimit="10"/>
<path d="M8.59259 9.95414C8.24806 9.80367 7.86781 9.72042 7.46816 9.7207C6.83506 9.72127 6.25091 9.9308 5.78094 10.2843L2.1275 13.9434C1.63025 14.4508 1.28459 15.146 1.28516 15.9127C1.286 17.4658 2.54628 18.7244 4.09963 18.7232C5.01959 18.7224 5.83606 18.28 6.34878 17.5965L9.72125 14.2193C10.0742 13.7488 10.2832 13.1643 10.2826 12.5312C10.2823 12.1313 10.1985 11.751 10.0478 11.4068" stroke="white" stroke-width="1.5" stroke-miterlimit="10"/>
<path d="M7.4707 12.5332L12.5298 7.46729" stroke="white" stroke-width="1.5" stroke-miterlimit="10"/>
</svg>
