<svg width="26" height="30" viewBox="0 0 26 30" fill="none" xmlns="http://www.w3.org/2000/svg">
<path d="M24.4906 1.21796C24.2215 1.01449 23.8725 0.9488 23.5477 1.0407L8.32721 5.34839C7.86363 5.47963 7.54357 5.90279 7.54357 6.38461V20.9641C6.90941 20.5963 6.17408 20.3846 5.38973 20.3846C3.01446 20.3846 1.08203 22.317 1.08203 24.6923C1.08203 27.0676 3.01446 29 5.38973 29C7.76499 29 9.69742 27.0676 9.69742 24.6923C9.69742 24.5805 9.69742 11.5067 9.69742 11.5067L22.7641 7.80859V16.6564C22.1299 16.2886 21.3946 16.0769 20.6102 16.0769C18.235 16.0769 16.3025 18.0094 16.3025 20.3846C16.3025 22.7599 18.235 24.6923 20.6102 24.6923C22.9855 24.6923 24.9179 22.7599 24.9179 20.3846C24.9179 20.2891 24.9179 2.07691 24.9179 2.07691C24.918 1.73948 24.7598 1.4215 24.4906 1.21796ZM5.3898 26.8462C4.20217 26.8462 3.23595 25.8799 3.23595 24.6923C3.23595 23.5047 4.20217 22.5385 5.3898 22.5385C6.57743 22.5385 7.54364 23.5047 7.54364 24.6923C7.54364 25.8799 6.57743 26.8462 5.3898 26.8462ZM20.6103 22.5385C19.4227 22.5385 18.4565 21.5722 18.4565 20.3846C18.4565 19.197 19.4227 18.2308 20.6103 18.2308C21.7979 18.2308 22.7642 19.197 22.7642 20.3846C22.7642 21.5722 21.7979 22.5385 20.6103 22.5385ZM22.7642 5.57024L9.69749 9.26832V7.19905L22.7642 3.50097V5.57024Z" fill="black" stroke="white" stroke-width="0.7"/>
</svg>
