<svg width="30" height="24" viewBox="0 0 30 24" fill="none" xmlns="http://www.w3.org/2000/svg">
<path d="M28.2415 4.31391C27.6752 3.7206 26.8931 3.37001 26.0031 3.37001H21.5263V3.31607C21.5263 2.64186 21.2567 1.99461 20.7982 1.56311C20.3397 1.10465 19.7194 0.834961 19.0452 0.834961H10.9546C10.2535 0.834961 9.63319 1.10465 9.17472 1.56311C8.71626 2.02158 8.44657 2.64186 8.44657 3.31607V3.37001H3.99675C3.10679 3.37001 2.3247 3.7206 1.75835 4.31391C1.19201 4.88025 0.814453 5.68931 0.814453 6.5523V19.9827C0.814453 20.8726 1.16505 21.6547 1.75835 22.2211C2.3247 22.7874 3.13375 23.165 3.99675 23.165H26.0031C26.8931 23.165 27.6752 22.8144 28.2415 22.2211C28.8079 21.6547 29.1854 20.8457 29.1854 19.9827V6.5523C29.1854 5.66234 28.8348 4.88025 28.2415 4.31391ZM27.7831 19.9827H27.7561C27.7561 20.4681 27.5673 20.8996 27.2437 21.2232C26.9201 21.5468 26.4886 21.7356 26.0031 21.7356H3.99675C3.51131 21.7356 3.07982 21.5468 2.75619 21.2232C2.43257 20.8996 2.24379 20.4681 2.24379 19.9827V6.5523C2.24379 6.06687 2.43257 5.63537 2.75619 5.31175C3.07982 4.98812 3.51131 4.79934 3.99675 4.79934H9.20169C9.60622 4.79934 9.92984 4.47572 9.92984 4.07119V3.2891C9.92984 2.99245 10.0377 2.72276 10.2265 2.53398C10.4153 2.3452 10.685 2.23733 10.9816 2.23733H19.0452C19.3419 2.23733 19.6116 2.3452 19.8004 2.53398C19.9891 2.72276 20.097 2.99245 20.097 3.2891V4.07119C20.097 4.47572 20.4206 4.79934 20.8252 4.79934H26.0301C26.5155 4.79934 26.947 4.98812 27.2707 5.31175C27.5943 5.63537 27.7831 6.06687 27.7831 6.5523V19.9827Z" fill="black"/>
<path d="M15.0005 6.6333C13.1666 6.6333 11.4946 7.38842 10.308 8.57504C9.09436 9.78863 8.36621 11.4337 8.36621 13.2676C8.36621 15.1014 9.12133 16.7735 10.308 17.9601C11.5215 19.1737 13.1666 19.9019 15.0005 19.9019C16.8344 19.9019 18.5064 19.1467 19.693 17.9601C20.9066 16.7465 21.6348 15.1014 21.6348 13.2676C21.6348 11.4337 20.8797 9.76166 19.693 8.57504C18.5064 7.38842 16.8344 6.6333 15.0005 6.6333ZM18.6682 16.9623C17.7243 17.8792 16.4298 18.4725 15.0005 18.4725C13.5712 18.4725 12.2767 17.8792 11.3328 16.9623C10.3889 16.0184 9.82252 14.7239 9.82252 13.2945C9.82252 11.8652 10.4158 10.5707 11.3328 9.62682C12.2767 8.68292 13.5712 8.11657 15.0005 8.11657C16.4298 8.11657 17.7243 8.70988 18.6682 9.62682C19.6121 10.5707 20.1785 11.8652 20.1785 13.2945C20.2054 14.7239 19.6121 16.0184 18.6682 16.9623Z" fill="black"/>
<path d="M24.6008 9.24937C25.3306 9.24937 25.9222 8.65773 25.9222 7.92791C25.9222 7.19808 25.3306 6.60645 24.6008 6.60645C23.8709 6.60645 23.2793 7.19808 23.2793 7.92791C23.2793 8.65773 23.8709 9.24937 24.6008 9.24937Z" fill="black"/>
</svg>
