<svg width="28" height="18" viewBox="0 0 28 18" fill="none" xmlns="http://www.w3.org/2000/svg">
<path d="M27.7094 1.57366C27.5291 1.46683 27.3062 1.46266 27.1222 1.563L20.6978 5.07088V2.9661C20.696 1.32872 19.3691 0.00185381 17.7317 0H2.9661C1.32872 0.00185381 0.00185381 1.32872 0 2.9661V14.6776C0.00185381 16.315 1.32872 17.6418 2.9661 17.6437H17.7317C19.3691 17.6418 20.696 16.315 20.6978 14.6776V12.611L27.1224 16.1189C27.3062 16.2192 27.5294 16.2153 27.7094 16.1085C27.8897 16.0014 28 15.8075 28 15.5982V2.08369C28 1.87421 27.8895 1.68048 27.7094 1.57366ZM19.5109 14.6778C19.51 15.6603 18.7138 16.4563 17.7313 16.4575H2.9661C1.98358 16.4563 1.1876 15.6603 1.18644 14.6778V2.9661C1.1876 1.98381 1.98358 1.1876 2.9661 1.18644H17.7317C18.714 1.1876 19.5102 1.98381 19.5114 2.9661L19.5109 14.6778ZM26.8136 14.5986L20.6978 11.2594V6.42254L26.8136 3.08359V14.5986Z" fill="black"/>
</svg>
