<svg width="18" height="14" viewBox="0 0 18 14" fill="none" xmlns="http://www.w3.org/2000/svg">
<path d="M17.2984 12.247C16.6487 13.0194 15.449 13.3345 13.1581 13.3345L4.84177 13.3345C2.49834 13.3345 1.27841 12.9991 0.631103 12.1768C3.426e-07 11.375 5.49149e-07 10.1937 8.35019e-07 8.55872L1.37988e-06 5.44246C1.9337e-06 2.27498 0.748802 0.666765 4.84177 0.666766L13.1581 0.666768C15.1449 0.666768 16.2458 0.944781 16.958 1.6264C17.6884 2.32538 18 3.46664 18 5.44246L18 8.55873C18 10.283 17.9512 11.4712 17.2984 12.247ZM11.5561 6.57036L7.77966 4.59669C7.69523 4.55256 7.60291 4.53067 7.5107 4.53067C7.4063 4.53067 7.30214 4.55878 7.20987 4.61463C7.03614 4.7199 6.93006 4.90821 6.93006 5.11132L6.93006 9.046C6.93006 9.24876 7.03585 9.43689 7.20923 9.54222C7.38267 9.64755 7.59838 9.65475 7.77832 9.56127L11.5547 7.60031C11.7469 7.50056 11.8675 7.30221 11.8678 7.0858C11.868 6.86922 11.7479 6.67058 11.5561 6.57036Z" fill="white"/>
</svg>
